<?xml version="1.0" encoding="utf-8"?>
<!-- Generator: Adobe Illustrator 19.1.0, SVG Export Plug-In . SVG Version: 6.00 Build 0)  -->
<!DOCTYPE svg PUBLIC "-//W3C//DTD SVG 1.1//EN" "http://www.w3.org/Graphics/SVG/1.1/DTD/svg11.dtd">
<svg version="1.1" id="Layer_2" xmlns="http://www.w3.org/2000/svg" xmlns:xlink="http://www.w3.org/1999/xlink" x="0px" y="0px"
	 viewBox="0 0 102 90.3" style="enable-background:new 0 0 102 90.3;" xml:space="preserve">
<style type="text/css">
	.st0{fill:#F06324;}
	.st1{fill:#57C2B6;}
	.st2{fill:#F0AF25;}
</style>
<path id="XMLID_114_" class="st0" d="M26.7,40.8c0,3.6-1.3,6.7-3.5,8.4l-4.1,3.2c-1,0.8-1.7,2.3-1.6,4.6l1,32.4H8.2L9.1,57
	c0.1-2.3-0.6-3.7-1.6-4.5l-4.1-3.3C1.2,47.4,0,44.5,0,40.8C0,24.6,1.3,14.6,1.8,4.6c0.2-2.5,0.7-3.7,1.8-3.7c1.2,0,1.6,1.2,1.8,3.7
	l1.3,20.3c0.2,1.2,0.9,2,1.6,2c0.7,0,1.4-0.8,1.6-2l1.6-20.3c0.1-2.6,0.7-3.7,1.7-3.7c1,0,1.5,1,1.7,3.7l1.6,20.3c0,1.2,0.7,2,1.5,2
	c0.9,0,1.6-0.8,1.6-2l1.4-20.3c0.1-2.5,0.7-3.7,1.8-3.7c1,0,1.6,1.2,1.7,3.7C25.4,14.6,26.7,24.6,26.7,40.8z"/>
<path id="XMLID_113_" class="st1" d="M40.1,57.5V5.4c0-4.4,1.8-5.5,4.4-3.9c8.2,4.8,13.6,24.8,13.6,49.9c0,4-5.3,5.9-6.9,6.9
	c-1,0.7-1.6,2.1-1.6,3.8l1.3,27.6H39.2C39.4,84,40.1,62.1,40.1,57.5L40.1,57.5z"/>
<path id="XMLID_112_" class="st2" d="M81.1,84.8c2,3.3,5.5,5.5,9.6,5.5c6.2,0,11.2-5,11.2-11.2c0-4.6-6.4-8.6-10.4-10.3
	c-1.3-0.6-2.2-46.6-0.9-47.2c4.1-1.7,11.2-5.7,11.2-10.4C102,5,97,0,90.8,0c-4.1,0-7.7,2.2-9.6,5.5c-2-3.3-5.5-5.5-9.6-5.5
	c-6.2,0-7.7,5-7.7,11.2c0,5.1,6.2,9.3,10.8,10.7c1,0.3,2,46.2,0.8,46.6c-4.3,1.6-11.6,5.7-11.6,10.5c0,6.2,1.5,11.2,7.7,11.2
	C75.6,90.3,79.2,88.1,81.1,84.8z"/>
</svg>
